<svg width="390" height="174" viewBox="0 0 390 174" fill="none" xmlns="http://www.w3.org/2000/svg">
<path d="M201.515 23.1608C201.515 15.6076 207.764 9.78421 218.771 9.78421C225.192 9.78421 234.995 12.5518 234.995 18.7788C234.995 21.5463 232.759 23.5644 230.007 23.5644C225.134 23.5644 225.134 18.3175 218.484 18.3175C214.758 18.3175 212.58 20.0472 212.58 22.0653C212.58 24.1986 213.669 25.7553 218.026 26.6779L225.02 28.177C233.791 30.0796 237.288 34.5769 237.288 41.0922C237.288 48.4724 232.644 55.3336 219.172 55.3336C210.516 55.3336 200.999 52.912 200.999 46.1661C200.999 43.2832 203.35 41.3805 206.216 41.3805C211.032 41.3805 211.834 45.9931 218.714 45.9931C223.3 45.9931 225.765 44.6093 225.765 41.8418C225.765 39.8238 224.676 38.44 220.548 37.5751L213.497 36.076C205.471 34.3463 201.515 30.3103 201.515 23.1608Z" fill="#9E7DFF"/>
<path d="M241.513 38.7283C241.513 29.1571 247.475 22.1229 258.024 22.1229C268.687 22.1229 274.419 29.2724 274.419 38.613C274.419 48.1841 268.343 55.2183 257.794 55.2183C247.246 55.2183 241.513 48.1264 241.513 38.7283ZM252.176 38.613C252.176 44.0328 254.011 47.5499 257.966 47.5499C261.922 47.5499 263.699 44.0328 263.699 38.6706C263.699 33.3661 261.922 29.7914 257.909 29.7914C253.953 29.7914 252.176 33.3085 252.176 38.613Z" fill="#9E7DFF"/>
<path d="M280.127 49.4526V14.3968C280.127 11.4563 282.534 9.03467 285.458 9.03467C288.382 9.03467 290.79 11.4563 290.79 14.3968V49.4526C290.79 52.3931 288.382 54.8147 285.458 54.8147C282.534 54.8147 280.127 52.3931 280.127 49.4526Z" fill="#9E7DFF"/>
<path d="M296.546 38.7283C296.546 29.1571 302.508 22.1229 313.056 22.1229C323.719 22.1229 329.452 29.2724 329.452 38.613C329.452 48.1841 323.375 55.2183 312.827 55.2183C302.279 55.2183 296.546 48.1264 296.546 38.7283ZM307.209 38.613C307.209 44.0328 309.043 47.5499 312.999 47.5499C316.954 47.5499 318.732 44.0328 318.732 38.6706C318.732 33.3661 316.954 29.7914 312.941 29.7914C308.986 29.7914 307.209 33.3085 307.209 38.613Z" fill="#9E7DFF"/>
<path d="M198.764 67.8719C198.764 65.4503 200.713 63.4899 203.121 63.4899H230.638C233.046 63.4899 234.995 65.4503 234.995 67.8719C234.995 70.2935 233.046 72.2539 230.638 72.2539H222.383V101.947C222.383 105.003 219.918 107.483 216.879 107.483C213.841 107.483 211.376 105.003 211.376 101.947V72.2539H203.121C200.713 72.2539 198.764 70.2935 198.764 67.8719Z" fill="#9E7DFF"/>
<path d="M239.314 102.12V80.0953C239.314 77.3854 241.55 75.1368 244.244 75.1368C246.996 75.1368 249.232 77.3854 249.232 80.0953V81.4791H249.461C250.608 78.7115 252.098 75.1368 255.538 75.1368C259.379 75.1368 260.525 77.962 260.525 79.807C260.525 81.998 258.863 84.362 256.054 84.362C251.296 84.362 249.977 88.5133 249.977 92.6646V102.12C249.977 105.061 247.569 107.483 244.646 107.483C241.722 107.483 239.314 105.061 239.314 102.12Z" fill="#9E7DFF"/>
<path d="M260.716 98.1998C260.716 89.0899 269.774 87.9944 276.882 87.9944H280.781C280.781 84.6502 280.437 82.4016 276.424 82.4016C271.551 82.4016 270.806 86.034 267.309 86.034C264.786 86.034 262.722 84.4196 262.722 81.825C262.722 76.3476 271.035 74.7908 276.538 74.7908C285.539 74.7908 291.042 78.2503 291.042 87.8791V102.351C291.042 105.176 288.921 107.483 286.112 107.483C283.59 107.483 281.526 105.638 281.182 103.216C278.717 106.618 275.506 107.771 271.379 107.771C265.589 107.771 260.716 104.369 260.716 98.1998ZM271.149 97.5655C271.149 99.7565 272.812 100.91 274.876 100.91C278.774 100.91 280.838 97.9115 280.838 94.2214V93.7025H277.456C274.818 93.7025 271.149 94.1637 271.149 97.5655Z" fill="#9E7DFF"/>
<path d="M296.831 80.3836C296.831 77.5007 299.181 75.1368 302.048 75.1368C304.398 75.1368 306.405 76.6935 307.035 78.8845L310.475 90.4737C310.934 92.0304 311.278 93.6448 311.507 94.8556C311.679 95.5475 311.794 96.2394 311.851 96.9313H312.195C312.31 96.2394 312.424 95.5475 312.596 94.8556C312.825 93.6448 313.227 92.0881 313.685 90.5313L317.24 78.5962C317.813 76.6359 319.648 75.1368 321.826 75.1368C324.52 75.1368 326.642 77.3277 326.642 79.98C326.642 80.5566 326.527 81.1331 326.355 81.6521L318.96 102.351C317.87 105.407 315.061 107.483 311.679 107.483C308.297 107.483 305.488 105.407 304.398 102.351L297.175 82.1133C297.003 81.5367 296.831 80.9602 296.831 80.3836Z" fill="#9E7DFF"/>
<path d="M329.632 91.3962C329.632 81.825 335.824 74.7908 345.799 74.7908C355.946 74.7908 361.449 82.3439 361.449 89.0899C361.449 92.3187 360.417 94.1637 356.748 94.1637H339.837C340.238 97.9115 342.646 100.333 346.257 100.333C350.557 100.333 351.016 96.8736 354.57 96.8736C356.92 96.8736 358.87 98.834 358.87 101.313C358.87 106.041 352.736 107.886 347.117 107.886C336.282 107.886 329.632 101.486 329.632 91.3962ZM339.894 87.8791H351.188C351.016 84.189 348.837 81.8827 345.627 81.8827C342.417 81.8827 340.295 84.189 339.894 87.8791Z" fill="#9E7DFF"/>
<path d="M366.958 102.12V67.0647C366.958 64.1242 369.366 61.7026 372.29 61.7026C375.213 61.7026 377.621 64.1242 377.621 67.0647V102.12C377.621 105.061 375.213 107.483 372.29 107.483C369.366 107.483 366.958 105.061 366.958 102.12Z" fill="#9E7DFF"/>
<path d="M201.515 128.497C201.515 120.943 207.764 115.12 218.771 115.12C225.192 115.12 234.995 117.888 234.995 124.115C234.995 126.882 232.759 128.9 230.007 128.9C225.134 128.9 225.134 123.653 218.484 123.653C214.758 123.653 212.58 125.383 212.58 127.401C212.58 129.534 213.669 131.091 218.026 132.014L225.02 133.513C233.791 135.415 237.288 139.913 237.288 146.428C237.288 153.808 232.644 160.669 219.172 160.669C210.516 160.669 200.999 158.248 200.999 151.502C200.999 148.619 203.35 146.716 206.216 146.716C211.032 146.716 211.834 151.329 218.714 151.329C223.3 151.329 225.765 149.945 225.765 147.178C225.765 145.16 224.676 143.776 220.548 142.911L213.497 141.412C205.471 139.682 201.515 135.646 201.515 128.497Z" fill="#9E7DFF"/>
<path d="M241.513 150.868C241.513 141.758 250.571 140.662 257.68 140.662H261.578C261.578 137.318 261.234 135.07 257.221 135.07C252.348 135.07 251.603 138.702 248.106 138.702C245.584 138.702 243.52 137.088 243.52 134.493C243.52 129.015 251.832 127.459 257.336 127.459C266.336 127.459 271.84 130.918 271.84 140.547V155.019C271.84 157.844 269.719 160.151 266.909 160.151C264.387 160.151 262.323 158.305 261.979 155.884C259.514 159.286 256.304 160.439 252.176 160.439C246.386 160.439 241.513 157.037 241.513 150.868ZM251.947 150.233C251.947 152.424 253.609 153.578 255.673 153.578C259.572 153.578 261.635 150.579 261.635 146.889V146.37H258.253C255.616 146.37 251.947 146.832 251.947 150.233Z" fill="#9E7DFF"/>
<path d="M275.851 131.783C275.851 129.88 277.399 128.266 279.348 128.266H280.953V127.286C280.953 118.752 284.565 114.486 293.91 114.486C296.719 114.486 298.954 115.293 298.954 118.522C298.954 120.597 297.865 122.788 295.687 122.788C292.763 122.788 291.616 123.711 291.616 126.94V128.266H294.769C296.719 128.266 298.266 129.88 298.266 131.783C298.266 133.743 296.719 135.358 294.769 135.358H291.616V154.788C291.616 157.729 289.209 160.151 286.285 160.151C283.361 160.151 280.953 157.729 280.953 154.788V135.358H279.348C277.399 135.358 275.851 133.743 275.851 131.783Z" fill="#9E7DFF"/>
<path d="M299.961 144.064C299.961 134.493 306.152 127.459 316.127 127.459C326.274 127.459 331.778 135.012 331.778 141.758C331.778 144.987 330.746 146.832 327.077 146.832H310.165C310.566 150.579 312.974 153.001 316.586 153.001C320.885 153.001 321.344 149.542 324.898 149.542C327.249 149.542 329.198 151.502 329.198 153.981C329.198 158.709 323.064 160.554 317.446 160.554C306.611 160.554 299.961 154.154 299.961 144.064ZM310.222 140.547H321.516C321.344 136.857 319.166 134.551 315.955 134.551C312.745 134.551 310.624 136.857 310.222 140.547Z" fill="#9E7DFF"/>
<path d="M333.962 131.841C333.962 129.88 335.509 128.266 337.459 128.266H339.408L339.637 123.999C339.752 121.462 341.93 119.387 344.51 119.387C347.204 119.387 349.383 121.578 349.383 124.288V128.266H352.765C354.714 128.266 356.262 129.88 356.262 131.783C356.262 133.743 354.714 135.358 352.765 135.358H349.612V148.215C349.612 151.502 351.389 152.194 352.708 152.54C355.116 153.232 356.835 153.981 356.835 155.999C356.835 160.266 352.65 160.381 349.039 160.381C341.529 160.381 338.949 156.576 339.006 149.138L339.064 135.358H337.459C335.509 135.358 333.962 133.743 333.962 131.841Z" fill="#9E7DFF"/>
<path d="M359.801 132.994C359.801 130.111 362.094 127.805 364.961 127.805C367.196 127.805 369.146 129.246 369.834 131.322L373.675 142.738C374.248 144.41 374.592 145.794 374.764 147.005C374.878 147.696 374.936 148.331 374.993 148.965H375.337C375.394 148.331 375.509 147.696 375.681 147.005C375.91 145.851 376.254 144.295 376.77 142.738L380.439 131.149C381.07 129.246 382.847 127.805 385.025 127.805C387.663 127.805 389.784 129.938 389.784 132.648C389.784 133.224 389.669 133.801 389.497 134.32L376.312 169.779C375.624 171.624 373.904 172.95 371.783 172.95C369.146 172.95 366.967 170.759 366.967 168.107C366.967 167.473 367.139 166.896 367.311 166.378L369.604 160.151L360.145 134.781C359.916 134.262 359.801 133.628 359.801 132.994Z" fill="#9E7DFF"/>
<path d="M100.625 1.31706C131.184 6.67345 155.185 27.4143 166.062 54.1834C166.73 55.8259 165.715 57.6474 163.965 57.935C158.766 58.7899 153.338 59.1392 146.728 59.1146C132.591 59.0578 125.624 57.3675 119.455 52.4776C116.253 49.931 113.954 47.4633 109.691 41.9271C106.417 37.6601 101.938 32.1889 100.615 30.8023C100.015 30.1735 99.2844 29.5217 99.0056 29.3685C98.2711 28.9561 97.1675 28.9022 96.6031 29.2335C96.0791 29.5544 95.5732 30.3688 95.5287 30.9771C95.4316 32.3132 96.4272 35.1126 98.1118 38.2272C99.5396 40.884 101.731 45.3639 101.897 45.9885C102.115 46.8019 102.027 47.4606 101.649 47.7658C100.92 48.3645 98.253 48.4232 96.2497 47.8786C92.9284 46.9722 87.6759 44.3437 84.1293 41.8253C82.5504 40.6998 79.4205 38.2506 76.9584 36.2233C73.4154 33.2929 69.942 30.6732 69.0867 30.2918C67.6578 29.6429 66.5953 29.939 66.1164 31.0876C65.8437 31.7594 65.923 33.0155 66.3106 34.0276C66.9409 35.6959 70.2129 39.2852 74.1718 42.6579C76.9394 45.0133 79.5119 47.3411 80.0435 48.0048C80.2024 48.1957 80.0543 48.4838 79.8065 48.4657L79.7467 48.4614C78.0949 48.3413 74.8757 47.2964 72.704 46.1678C72.1707 45.8897 69.8871 44.4872 67.6337 43.0336C61.1361 38.8643 60.0335 38.2524 58.6831 38.1543C57.0443 38.0352 56.1541 39.2203 56.7262 40.7779C57.4066 42.6625 60.2166 45.7118 64.0533 48.7699C66.4324 50.6716 68.0412 51.7471 71.1519 53.5558C73.579 54.9686 74.9851 55.9344 75.3443 56.4393C75.4872 56.6491 75.3812 56.6546 74.1489 56.565C71.2385 56.3534 69.3191 55.736 63.0455 53.0193C58.959 51.2332 58.3044 50.9853 57.3524 50.8496C56.0857 50.691 55.7654 50.7343 55.1953 51.1449C54.3879 51.7377 54.2915 52.875 54.97 54.0546C55.3574 54.7078 57.1691 56.4487 58.7421 57.6535C59.8908 58.5349 63.271 60.6295 65.2255 61.6625C65.962 62.0485 67.5143 62.7997 68.7004 63.338C70.8694 64.3201 72.4697 65.1545 72.9149 65.5592C73.1627 65.7767 73.1494 65.7893 72.7577 65.9204C72.4868 66.0204 71.7354 66.0188 70.5818 65.9349C68.9702 65.8045 68.658 65.7415 67.0772 65.1877C61.7948 63.341 61.4595 63.2373 60.6345 63.1641C59.5858 63.0879 58.9355 63.3326 58.5616 63.9437C57.8729 65.0772 58.5982 66.7119 60.474 68.2845C61.4923 69.1431 62.795 69.8905 67.0352 72.1135C73.524 75.4975 76.6735 76.9629 81.2399 78.6911C91.0264 82.3945 95.6966 83.7843 106.733 86.2488C110.118 87.0001 115.547 87.9268 119.362 88.377C122.786 88.7854 131.563 88.9711 136.469 88.7426C145.304 88.3209 159.544 86.4303 171.535 84.1103C171.974 84.0245 172.385 84.3484 172.395 84.7956C172.516 90.3735 172.101 96.0447 171.101 101.749C162.829 148.943 117.864 180.496 70.6695 172.225C41.4906 167.111 18.291 147.971 6.78538 122.949C5.5677 120.301 8.66427 118.078 11.0118 119.805C16.4985 123.843 21.4081 126.846 27.1404 129.772C33.541 133.049 39.094 135.26 48.7804 138.374C56.8792 140.976 68.4995 143.45 76.015 144.15C79.7169 144.493 86.1782 144.936 87.7157 144.956C89.1118 144.961 91.1769 144.434 91.9232 143.869C92.9154 143.15 93.2178 142.019 92.6505 141.237C92.1787 140.611 90.7109 139.984 88.4692 139.469C83.874 138.427 83.0963 138.209 81.9158 137.658C80.7004 137.088 79.7075 136.35 79.7693 136.037C79.8117 135.819 81.6546 135.852 83.4085 136.107C90.1448 137.07 95.5874 137.105 99.6479 136.212C101.651 135.774 102.822 134.803 102.736 133.647C102.682 132.852 102.3 132.394 101.225 131.839C100.372 131.401 100.003 131.311 96.9943 130.84C87.7971 129.412 86.9063 129.209 84.1392 127.89C82.7845 127.246 82.5117 127.086 82.6265 126.982C82.882 126.727 84.511 126.63 87.2122 126.698C94.6711 126.888 99.7305 126.3 104.292 124.742C106.618 123.95 107.66 123.166 107.754 122.119C107.856 120.973 106.858 120.159 104.93 119.811C104.29 119.697 101.394 119.632 97.4531 119.656C90.5414 119.697 90.0173 119.673 87.9486 119.281C85.7567 118.868 82.5834 117.755 82.7388 117.462C82.8768 117.204 85.3231 116.715 90.0488 115.996C97.6039 114.856 100.996 113.878 102.807 112.316C103.441 111.767 104.049 110.648 104.05 110.003C104.061 108.748 102.898 107.965 101.047 108.004C99.5443 108.032 96.5547 108.337 91.3047 109.004C85.2091 109.778 83.2364 109.934 80.156 109.905C73.4889 109.85 67.7587 108.506 65.7693 106.534C65.2133 105.984 64.8715 105.141 65.0578 104.79C65.4806 103.993 67.1447 102.879 72.7432 99.6487C78.0358 96.6019 79.9101 94.6389 79.2718 92.8136C78.9387 91.871 77.8058 91.3141 76.4537 91.4223C75.2306 91.5393 66.9065 94.2687 59.8526 96.8763C52.1258 99.7425 47.1043 100.651 41.8578 100.134C38.1801 99.7734 35.4285 98.9298 30.5028 96.6308C23.9777 93.588 13.9493 87.1087 8.1887 82.2044C5.55703 79.9644 3.0751 77.5804 0.749066 75.0697C0.158981 74.4327 -0.103572 73.5593 0.0373136 72.7025C0.0871438 72.3995 0.138617 72.0964 0.19176 71.7932C8.4637 24.5981 53.4296 -6.95485 100.625 1.31706Z" fill="#9E7DFF"/>
</svg>
