<svg width="374" height="164" viewBox="0 0 374 164" fill="none" xmlns="http://www.w3.org/2000/svg">
<path d="M185.515 14.1261C185.515 6.57295 191.764 0.749544 202.771 0.749544C209.192 0.749544 218.995 3.51711 218.995 9.74411C218.995 12.5117 216.759 14.5297 214.007 14.5297C209.134 14.5297 209.134 9.28286 202.484 9.28286C198.758 9.28286 196.58 11.0126 196.58 13.0306C196.58 15.1639 197.669 16.7207 202.026 17.6432L209.02 19.1423C217.791 21.045 221.288 25.5423 221.288 32.0576C221.288 39.4377 216.644 46.299 203.172 46.299C194.516 46.299 184.999 43.8773 184.999 37.1314C184.999 34.2485 187.35 32.3458 190.216 32.3458C195.032 32.3458 195.834 36.9584 202.714 36.9584C207.3 36.9584 209.765 35.5747 209.765 32.8071C209.765 30.7891 208.676 29.4053 204.548 28.5405L197.497 27.0414C189.471 25.3116 185.515 21.2756 185.515 14.1261Z" fill="#1CAA9C"/>
<path d="M225.513 29.6936C225.513 20.1225 231.475 13.0882 242.024 13.0882C252.687 13.0882 258.419 20.2378 258.419 29.5783C258.419 39.1494 252.343 46.1836 241.794 46.1836C231.246 46.1836 225.513 39.0918 225.513 29.6936ZM236.176 29.5783C236.176 34.9981 238.011 38.5152 241.966 38.5152C245.922 38.5152 247.699 34.9981 247.699 29.6359C247.699 24.3315 245.922 20.7567 241.909 20.7567C237.953 20.7567 236.176 24.2738 236.176 29.5783Z" fill="#1CAA9C"/>
<path d="M264.127 40.4179V5.36215C264.127 2.42161 266.534 0 269.458 0C272.382 0 274.79 2.42161 274.79 5.36215V40.4179C274.79 43.3584 272.382 45.78 269.458 45.78C266.534 45.78 264.127 43.3584 264.127 40.4179Z" fill="#1CAA9C"/>
<path d="M280.546 29.6936C280.546 20.1225 286.508 13.0882 297.056 13.0882C307.719 13.0882 313.452 20.2378 313.452 29.5783C313.452 39.1494 307.375 46.1836 296.827 46.1836C286.279 46.1836 280.546 39.0918 280.546 29.6936ZM291.209 29.5783C291.209 34.9981 293.043 38.5152 296.999 38.5152C300.954 38.5152 302.732 34.9981 302.732 29.6359C302.732 24.3315 300.954 20.7567 296.941 20.7567C292.986 20.7567 291.209 24.2738 291.209 29.5783Z" fill="#1CAA9C"/>
<path d="M182.764 58.8372C182.764 56.4156 184.713 54.4553 187.121 54.4553H214.638C217.046 54.4553 218.995 56.4156 218.995 58.8372C218.995 61.2589 217.046 63.2192 214.638 63.2192H206.383V92.9128C206.383 95.9687 203.918 98.4479 200.879 98.4479C197.841 98.4479 195.376 95.9687 195.376 92.9128V63.2192H187.121C184.713 63.2192 182.764 61.2589 182.764 58.8372Z" fill="#1CAA9C"/>
<path d="M223.314 93.0858V71.0606C223.314 68.3507 225.55 66.1021 228.244 66.1021C230.996 66.1021 233.232 68.3507 233.232 71.0606V72.4444H233.461C234.608 69.6769 236.098 66.1021 239.538 66.1021C243.379 66.1021 244.525 68.9273 244.525 70.7723C244.525 72.9633 242.863 75.3273 240.054 75.3273C235.296 75.3273 233.977 79.4786 233.977 83.63V93.0858C233.977 96.0263 231.569 98.4479 228.646 98.4479C225.722 98.4479 223.314 96.0263 223.314 93.0858Z" fill="#1CAA9C"/>
<path d="M244.716 89.1651C244.716 80.0552 253.774 78.9597 260.882 78.9597H264.781C264.781 75.6156 264.437 73.3669 260.424 73.3669C255.551 73.3669 254.806 76.9994 251.309 76.9994C248.786 76.9994 246.722 75.3849 246.722 72.7904C246.722 67.3129 255.035 65.7561 260.538 65.7561C269.539 65.7561 275.042 69.2156 275.042 78.8444V93.3164C275.042 96.1416 272.921 98.4479 270.112 98.4479C267.59 98.4479 265.526 96.6029 265.182 94.1813C262.717 97.5831 259.506 98.7362 255.379 98.7362C249.589 98.7362 244.716 95.3344 244.716 89.1651ZM255.149 88.5309C255.149 90.7218 256.812 91.875 258.876 91.875C262.774 91.875 264.838 88.8768 264.838 85.1867V84.6678H261.456C258.818 84.6678 255.149 85.1291 255.149 88.5309Z" fill="#1CAA9C"/>
<path d="M280.831 71.3489C280.831 68.466 283.181 66.1021 286.048 66.1021C288.398 66.1021 290.405 67.6588 291.035 69.8498L294.475 81.439C294.934 82.9957 295.278 84.6101 295.507 85.8209C295.679 86.5128 295.794 87.2047 295.851 87.8966H296.195C296.31 87.2047 296.424 86.5128 296.596 85.8209C296.825 84.6101 297.227 83.0534 297.685 81.4966L301.24 69.5615C301.813 67.6012 303.648 66.1021 305.826 66.1021C308.52 66.1021 310.642 68.2931 310.642 70.9453C310.642 71.5219 310.527 72.0985 310.355 72.6174L302.96 93.3164C301.87 96.3723 299.061 98.4479 295.679 98.4479C292.297 98.4479 289.488 96.3723 288.398 93.3164L281.175 73.0786C281.003 72.5021 280.831 71.9255 280.831 71.3489Z" fill="#1CAA9C"/>
<path d="M313.632 82.3615C313.632 72.7904 319.824 65.7561 329.799 65.7561C339.946 65.7561 345.449 73.3093 345.449 80.0552C345.449 83.284 344.417 85.1291 340.748 85.1291H323.837C324.238 88.8768 326.646 91.2984 330.257 91.2984C334.557 91.2984 335.016 87.839 338.57 87.839C340.92 87.839 342.87 89.7993 342.87 92.2786C342.87 97.0065 336.736 98.8515 331.117 98.8515C320.282 98.8515 313.632 92.4516 313.632 82.3615ZM323.894 78.8444H335.188C335.016 75.1543 332.837 72.848 329.627 72.848C326.417 72.848 324.295 75.1543 323.894 78.8444Z" fill="#1CAA9C"/>
<path d="M350.958 93.0858V58.03C350.958 55.0895 353.366 52.6679 356.29 52.6679C359.213 52.6679 361.621 55.0895 361.621 58.03V93.0858C361.621 96.0263 359.213 98.4479 356.29 98.4479C353.366 98.4479 350.958 96.0263 350.958 93.0858Z" fill="#1CAA9C"/>
<path d="M185.515 119.462C185.515 111.909 191.764 106.085 202.771 106.085C209.192 106.085 218.995 108.853 218.995 115.08C218.995 117.847 216.759 119.865 214.007 119.865C209.134 119.865 209.134 114.619 202.484 114.619C198.758 114.619 196.58 116.348 196.58 118.366C196.58 120.5 197.669 122.056 202.026 122.979L209.02 124.478C217.791 126.381 221.288 130.878 221.288 137.393C221.288 144.774 216.644 151.635 203.172 151.635C194.516 151.635 184.999 149.213 184.999 142.467C184.999 139.584 187.35 137.682 190.216 137.682C195.032 137.682 195.834 142.294 202.714 142.294C207.3 142.294 209.765 140.91 209.765 138.143C209.765 136.125 208.676 134.741 204.548 133.876L197.497 132.377C189.471 130.647 185.515 126.611 185.515 119.462Z" fill="#1CAA9C"/>
<path d="M225.513 141.833C225.513 132.723 234.571 131.628 241.68 131.628H245.578C245.578 128.283 245.234 126.035 241.221 126.035C236.348 126.035 235.603 129.667 232.106 129.667C229.584 129.667 227.52 128.053 227.52 125.458C227.52 119.981 235.832 118.424 241.336 118.424C250.336 118.424 255.84 121.883 255.84 131.512V145.984C255.84 148.81 253.719 151.116 250.909 151.116C248.387 151.116 246.323 149.271 245.979 146.849C243.514 150.251 240.304 151.404 236.176 151.404C230.386 151.404 225.513 148.002 225.513 141.833ZM235.947 141.199C235.947 143.39 237.609 144.543 239.673 144.543C243.572 144.543 245.635 141.545 245.635 137.855V137.336H242.253C239.616 137.336 235.947 137.797 235.947 141.199Z" fill="#1CAA9C"/>
<path d="M259.851 122.748C259.851 120.846 261.399 119.231 263.348 119.231H264.953V118.251C264.953 109.718 268.565 105.451 277.91 105.451C280.719 105.451 282.954 106.258 282.954 109.487C282.954 111.563 281.865 113.754 279.687 113.754C276.763 113.754 275.616 114.676 275.616 117.905V119.231H278.769C280.719 119.231 282.266 120.846 282.266 122.748C282.266 124.709 280.719 126.323 278.769 126.323H275.616V145.754C275.616 148.694 273.209 151.116 270.285 151.116C267.361 151.116 264.953 148.694 264.953 145.754V126.323H263.348C261.399 126.323 259.851 124.709 259.851 122.748Z" fill="#1CAA9C"/>
<path d="M283.961 135.029C283.961 125.458 290.152 118.424 300.127 118.424C310.274 118.424 315.778 125.977 315.778 132.723C315.778 135.952 314.746 137.797 311.077 137.797H294.165C294.566 141.545 296.974 143.966 300.586 143.966C304.885 143.966 305.344 140.507 308.898 140.507C311.249 140.507 313.198 142.467 313.198 144.946C313.198 149.674 307.064 151.519 301.446 151.519C290.611 151.519 283.961 145.119 283.961 135.029ZM294.222 131.512H305.516C305.344 127.822 303.166 125.516 299.955 125.516C296.745 125.516 294.624 127.822 294.222 131.512Z" fill="#1CAA9C"/>
<path d="M317.962 122.806C317.962 120.846 319.509 119.231 321.459 119.231H323.408L323.637 114.965C323.752 112.428 325.93 110.352 328.51 110.352C331.204 110.352 333.383 112.543 333.383 115.253V119.231H336.765C338.714 119.231 340.262 120.846 340.262 122.748C340.262 124.709 338.714 126.323 336.765 126.323H333.612V139.181C333.612 142.467 335.389 143.159 336.708 143.505C339.116 144.197 340.835 144.946 340.835 146.965C340.835 151.231 336.65 151.346 333.039 151.346C325.529 151.346 322.949 147.541 323.006 140.103L323.064 126.323H321.459C319.509 126.323 317.962 124.709 317.962 122.806Z" fill="#1CAA9C"/>
<path d="M343.801 123.959C343.801 121.076 346.094 118.77 348.961 118.77C351.196 118.77 353.146 120.211 353.834 122.287L357.675 133.703C358.248 135.375 358.592 136.759 358.764 137.97C358.878 138.662 358.936 139.296 358.993 139.93H359.337C359.394 139.296 359.509 138.662 359.681 137.97C359.91 136.817 360.254 135.26 360.77 133.703L364.439 122.114C365.07 120.211 366.847 118.77 369.025 118.77C371.663 118.77 373.784 120.903 373.784 123.613C373.784 124.19 373.669 124.766 373.497 125.285L360.312 160.745C359.624 162.59 357.904 163.916 355.783 163.916C353.146 163.916 350.967 161.725 350.967 159.073C350.967 158.438 351.139 157.862 351.311 157.343L353.604 151.116L344.145 125.747C343.916 125.228 343.801 124.593 343.801 123.959Z" fill="#1CAA9C"/>
<path d="M159.545 26.0987C160.675 25.9982 161.407 27.2687 160.755 28.2L147.548 47.073C146.988 47.8735 145.788 47.8203 145.301 46.9733L135.609 30.1363C135.122 29.2893 135.676 28.221 136.647 28.1347L159.545 26.0987Z" fill="#1CAA9C"/>
<path d="M5.12353 13.678C47.5807 -10.5511 101.637 4.11752 126.097 46.6119C149.907 87.9781 145.215 135.724 105.63 161.331C103.567 162.666 100.839 161.926 99.6117 159.793L4.91202 14.4638C4.75345 14.1883 4.84827 13.836 5.12353 13.678Z" fill="#1CAA9C"/>
<path d="M0.596421 71.3787C-0.631364 69.2456 0.0972577 66.5181 2.22384 65.2866L110.256 24.8881C123.122 17.4374 139.573 21.859 147.001 34.764C154.429 47.669 150.021 64.1705 137.155 71.6212L43.2877 148.144C41.1611 149.376 38.4419 148.645 37.2141 146.512L0.596421 71.3787Z" fill="#1CAA9C"/>
</svg>
